<svg width="current" height="current" viewBox="0 0 168 24" fill="none" xmlns="http://www.w3.org/2000/svg">
<g clip-path="url(#clip0_74_9351)">
<path d="M3.30194 23.66C1.48229 23.66 0 22.21 0 20.43V11.69C0 5.25 5.36693 0 11.9606 0C18.5542 0 23.9212 5.25 23.9212 11.7V20.32C23.9212 22.1 22.4389 23.55 20.6192 23.55C18.7996 23.55 17.3173 22.1 17.3173 20.32V11.7C17.3173 8.81 14.9149 6.46 11.9606 6.46C9.00621 6.46 6.60388 8.81 6.60388 11.7V20.44C6.60388 22.22 5.12158 23.67 3.30194 23.67V23.66Z" fill="#221D1E"/>
<path d="M34.0412 23.66C32.2216 23.66 30.7393 22.21 30.7393 20.43V12.38C30.7393 10.6 32.2216 9.14999 34.0412 9.14999C35.8608 9.14999 37.3431 10.6 37.3431 12.38V20.43C37.3431 22.21 35.8608 23.66 34.0412 23.66Z" fill="#221D1E"/>
<path d="M64.045 23.78C62.2254 23.78 60.7431 22.33 60.7431 20.55V11.7C60.7431 8.81 58.3407 6.46 55.3864 6.46C52.432 6.46 50.0297 8.81 50.0297 11.7V20.44C50.0297 22.22 48.5474 23.67 46.7277 23.67C44.9081 23.67 43.4258 22.22 43.4258 20.44V11.7C43.4258 5.25 48.7927 0 55.3864 0C61.98 0 67.3469 5.25 67.3469 11.7V20.55C67.3469 22.33 65.8646 23.78 64.045 23.78Z" fill="#221D1E"/>
<path d="M77.4679 23.66C75.6483 23.66 74.166 22.21 74.166 20.43V12.38C74.166 10.6 75.6483 9.14999 77.4679 9.14999C79.2876 9.14999 80.7699 10.6 80.7699 12.38V20.43C80.7699 22.21 79.2876 23.66 77.4679 23.66Z" fill="#221D1E"/>
<path d="M107.472 23.78C105.652 23.78 104.17 22.33 104.17 20.55V11.7C104.17 8.81 101.767 6.46 98.8131 6.46C95.8588 6.46 93.4564 8.81 93.4564 11.7V20.44C93.4564 22.22 91.9741 23.67 90.1545 23.67C88.3348 23.67 86.8525 22.22 86.8525 20.44V11.7C86.8525 5.25 92.2195 0 98.8131 0C105.407 0 110.774 5.25 110.774 11.7V20.55C110.774 22.33 109.291 23.78 107.472 23.78Z" fill="#221D1E"/>
<path d="M120.904 23.66C119.085 23.66 117.603 22.21 117.603 20.43V12.38C117.603 10.6 119.085 9.14999 120.904 9.14999C122.724 9.14999 124.206 10.6 124.206 12.38V20.43C124.206 22.21 122.724 23.66 120.904 23.66Z" fill="#221D1E"/>
<path d="M150.898 23.78C149.078 23.78 147.596 22.33 147.596 20.55V11.7C147.596 8.81 145.193 6.46 142.239 6.46C139.285 6.46 136.882 8.81 136.882 11.7V20.44C136.882 22.22 135.4 23.67 133.58 23.67C131.761 23.67 130.278 22.22 130.278 20.44V11.7C130.278 5.25 135.645 0 142.239 0C148.833 0 154.199 5.25 154.199 11.7V20.55C154.199 22.33 152.717 23.78 150.898 23.78Z" fill="#221D1E"/>
<path d="M164.33 23.66C162.511 23.66 161.028 22.21 161.028 20.43V12.38C161.028 10.6 162.511 9.14999 164.33 9.14999C166.15 9.14999 167.632 10.6 167.632 12.38V20.43C167.632 22.21 166.15 23.66 164.33 23.66Z" fill="#221D1E"/>
<path d="M37.5276 3.85C37.5276 5.74 35.9635 7.26 34.0416 7.26C32.1197 7.26 30.5557 5.73 30.5557 3.85C30.5557 1.97 32.1197 0.440002 34.0416 0.440002C35.9635 0.440002 37.5276 1.97 37.5276 3.85Z" fill="#221D1E"/>
<path d="M80.9641 3.85C80.9641 5.74 79.4 7.26 77.4781 7.26C75.5563 7.26 73.9922 5.73 73.9922 3.85C73.9922 1.97 75.5563 0.440002 77.4781 0.440002C79.4 0.440002 80.9641 1.97 80.9641 3.85Z" fill="#221D1E"/>
<path d="M124.39 3.85C124.39 5.74 122.826 7.26 120.904 7.26C118.982 7.26 117.418 5.73 117.418 3.85C117.418 1.97 118.982 0.440002 120.904 0.440002C122.826 0.440002 124.39 1.97 124.39 3.85Z" fill="#221D1E"/>
<path d="M167.816 3.85C167.816 5.74 166.252 7.26 164.33 7.26C162.408 7.26 160.844 5.73 160.844 3.85C160.844 1.97 162.408 0.440002 164.33 0.440002C166.252 0.440002 167.816 1.97 167.816 3.85Z" fill="#221D1E"/>
</g>
<defs>
<clipPath id="clip0_74_9351">
<rect width="167.816" height="23.78" fill="white"/>
</clipPath>
</defs>
</svg>
