<?xml version="1.0" encoding="UTF-8"?>
<svg width="13px" height="11px" viewBox="0 0 13 11" version="1.1" xmlns="http://www.w3.org/2000/svg" xmlns:xlink="http://www.w3.org/1999/xlink">
    <!-- Generator: sketchtool 55.2 (78181) - https://sketchapp.com -->
    <title>0A75E15B-3661-4F48-871E-B7745CF7115C</title>
    <desc>Created with sketchtool.</desc>
    <g id="Page-1" stroke="none" stroke-width="1" fill="none" fill-rule="evenodd">
        <g id="Login" transform="translate(-824.000000, -878.000000)" fill="#22C744" fill-rule="nonzero">
            <g id="sns_login" transform="translate(800.000000, 798.000000)">
                <g id="naver_btn" transform="translate(0.000000, 60.000000)">
                    <g id="naver" transform="translate(24.000000, 20.000000)">
                        <path d="M0,0 L4.52149613,0 C4.52149613,0 8.62940671,5.93582888 8.75236457,6.09625668 C8.87532244,6.25668449 8.89208942,6.09625668 8.89208942,6.09625668 C8.70206363,5.17647059 8.49527085,4.76470588 8.49527085,3.29411765 L8.49527085,0 L13,0 L13,11 L8.49527085,11 C8.49527085,11 4.47119518,5.37967914 4.34823732,5.22459893 C4.22527945,5.06951872 4.20851247,5.22459893 4.20851247,5.22459893 C4.3650043,5.98395722 4.49914015,6.11229947 4.49914015,7.42780749 L4.49914015,11 L0,11 L0,0 L0,0 Z" id="Path"></path>
                    </g>
                </g>
            </g>
        </g>
    </g>
</svg>