<?xml version="1.0" encoding="UTF-8"?>
<svg id="_레이어_2" data-name="레이어 2" xmlns="http://www.w3.org/2000/svg" viewBox="0 0 164.16 23.78">
  <defs>
    <style>
      .cls-1 {
        fill: #221d1e;
        stroke-width: 0px;
      }
    </style>
  </defs>
  <g id="_인쇄_cmyk" data-name="인쇄 cmyk">
    <g>
      <path class="cls-1" d="m3.23,23.66c-1.78,0-3.23-1.45-3.23-3.23v-8.74C0,5.25,5.25,0,11.7,0s11.7,5.25,11.7,11.7v8.62c0,1.78-1.45,3.23-3.23,3.23s-3.23-1.45-3.23-3.23v-8.62c0-2.89-2.35-5.24-5.24-5.24s-5.24,2.35-5.24,5.24v8.74c0,1.78-1.45,3.23-3.23,3.23Z"/>
      <path class="cls-1" d="m33.3,23.66c-1.78,0-3.23-1.45-3.23-3.23v-8.05c0-1.78,1.45-3.23,3.23-3.23s3.23,1.45,3.23,3.23v8.05c0,1.78-1.45,3.23-3.23,3.23Z"/>
      <path class="cls-1" d="m62.65,23.78c-1.78,0-3.23-1.45-3.23-3.23v-8.85c0-2.89-2.35-5.24-5.24-5.24s-5.24,2.35-5.24,5.24v8.74c0,1.78-1.45,3.23-3.23,3.23s-3.23-1.45-3.23-3.23v-8.74c0-6.45,5.25-11.7,11.7-11.7s11.7,5.25,11.7,11.7v8.85c0,1.78-1.45,3.23-3.23,3.23Z"/>
      <path class="cls-1" d="m75.78,23.66c-1.78,0-3.23-1.45-3.23-3.23v-8.05c0-1.78,1.45-3.23,3.23-3.23s3.23,1.45,3.23,3.23v8.05c0,1.78-1.45,3.23-3.23,3.23Z"/>
      <path class="cls-1" d="m105.13,23.78c-1.78,0-3.23-1.45-3.23-3.23v-8.85c0-2.89-2.35-5.24-5.24-5.24s-5.24,2.35-5.24,5.24v8.74c0,1.78-1.45,3.23-3.23,3.23s-3.23-1.45-3.23-3.23v-8.74c0-6.45,5.25-11.7,11.7-11.7s11.7,5.25,11.7,11.7v8.85c0,1.78-1.45,3.23-3.23,3.23Z"/>
      <path class="cls-1" d="m118.27,23.66c-1.78,0-3.23-1.45-3.23-3.23v-8.05c0-1.78,1.45-3.23,3.23-3.23s3.23,1.45,3.23,3.23v8.05c0,1.78-1.45,3.23-3.23,3.23Z"/>
      <path class="cls-1" d="m147.61,23.78c-1.78,0-3.23-1.45-3.23-3.23v-8.85c0-2.89-2.35-5.24-5.24-5.24s-5.24,2.35-5.24,5.24v8.74c0,1.78-1.45,3.23-3.23,3.23s-3.23-1.45-3.23-3.23v-8.74c0-6.45,5.25-11.7,11.7-11.7s11.7,5.25,11.7,11.7v8.85c0,1.78-1.45,3.23-3.23,3.23Z"/>
      <path class="cls-1" d="m160.75,23.66c-1.78,0-3.23-1.45-3.23-3.23v-8.05c0-1.78,1.45-3.23,3.23-3.23s3.23,1.45,3.23,3.23v8.05c0,1.78-1.45,3.23-3.23,3.23Z"/>
      <path class="cls-1" d="m36.71,3.85c0,1.89-1.53,3.41-3.41,3.41s-3.41-1.53-3.41-3.41,1.53-3.41,3.41-3.41,3.41,1.53,3.41,3.41Z"/>
      <path class="cls-1" d="m79.2,3.85c0,1.8 9-1.53,3.41-3.41,3.41s-3.41-1.53-3.41-3.41,1.53-3.41,3.41-3.41,3.41,1.53,3.41,3.41Z"/>
      <path class="cls-1" d="m121.68,3.85c0,1.89-1.53,3.41-3.41,3.41s-3.41-1.53-3.41-3.41,1.53-3.41,3.41-3.41,3.41,1.53,3.41,3.41Z"/>
      <path class="cls-1" d="m164.16,3.85c0,1.89-1.53,3.41-3.41,3.41s-3.41-1.53-3.41-3.41,1.53-3.41,3.41-3.41,3.41,1.53,3.41,3.41Z"/>
    </g>
  </g>
</svg>